# xmcd
#
# Track frame offsets:
#	150
#	22733
#	45244
#	77618
#	99146
#
# Disc length: 1701 seconds
#
# Revision: 2
# Processed by: cddbd v1.5.2PL0 Copyright (c) Steve Scherf et al.
# Submitted via: audiograbber 1.83.01
#
DISCID=2006a305
DTITLE=Mexico City - Big Black Car
DYEAR=2003
DGENRE=Blues
TTITLE0=Mexico City - Big black car
TTITLE1=Mexico City - Into the river
TTITLE2=Mexico City - Your'e really gone
TTITLE3=Mexico City - Brokedown beats - deadend streets
TTITLE4=Mexico City - Strung out country blues
EXTD=
EXTT0=
EXTT1=
EXTT2=
EXTT3=
EXTT4=
PLAYORDER=
